<?xml version="1.0" standalone="no"?>
<!DOCTYPE svg PUBLIC "-//W3C//DTD SVG 1.1//EN" "http://www.w3.org/Graphics/SVG/1.1/DTD/svg11.dtd" >
<svg xmlns="http://www.w3.org/2000/svg">
<metadata>
Created by FontForge 20120731 at Fri Apr 14 14:54:23 2017
 By admin
</metadata>
<defs>
<font id="iconfont" horiz-adv-x="1024" >
  <font-face 
    font-family="iconfont"
    font-weight="500"
    font-stretch="normal"
    units-per-em="1024"
    panose-1="2 0 6 3 0 0 0 0 0 0"
    ascent="896"
    descent="-128"
    x-height="792"
    bbox="2.48889 -140 1021.51 895"
    underline-thickness="0"
    underline-position="0"
    unicode-range="U+0078-E79C"
  />
<missing-glyph 
 />
    <glyph glyph-name=".notdef" 
 />
    <glyph glyph-name=".notdef" 
 />
    <glyph glyph-name=".null" horiz-adv-x="0" 
 />
    <glyph glyph-name="nonmarkingreturn" horiz-adv-x="341" 
 />
    <glyph glyph-name="x" unicode="x" horiz-adv-x="1001" 
d="M281 543q-27 -1 -53 -1h-83q-18 0 -36.5 -6t-32.5 -18.5t-23 -32t-9 -45.5v-76h912v41q0 16 -0.5 30t-0.5 18q0 13 -5 29t-17 29.5t-31.5 22.5t-49.5 9h-133v-97h-438v97zM955 310v-52q0 -23 0.5 -52t0.5 -58t-10.5 -47.5t-26 -30t-33 -16t-31.5 -4.5q-14 -1 -29.5 -0.5
t-29.5 0.5h-32l-45 128h-439l-44 -128h-29h-34q-20 0 -45 1q-25 0 -41 9.5t-25.5 23t-13.5 29.5t-4 30v167h911zM163 247q-12 0 -21 -8.5t-9 -21.5t9 -21.5t21 -8.5q13 0 22 8.5t9 21.5t-9 21.5t-22 8.5zM316 123q-8 -26 -14 -48q-5 -19 -10.5 -37t-7.5 -25t-3 -15t1 -14.5
t9.5 -10.5t21.5 -4h37h67h81h80h64h36q23 0 34 12t2 38q-5 13 -9.5 30.5t-9.5 34.5q-5 19 -11 39h-368zM336 498v228q0 11 2.5 23t10 21.5t20.5 15.5t34 6h188q31 0 51.5 -14.5t20.5 -52.5v-227h-327z" />
    <glyph glyph-name="tuichu" unicode="&#xe79b;" 
d="M685 705v-65q79 -46 125.5 -125.5t46.5 -173.5t-46 -173.5t-125.5 -126t-173.5 -46.5t-173.5 46.5t-125.5 126t-46 173.5t46.5 173.5t125.5 125.5v65q-104 -49 -167 -147t-63 -217q0 -110 54 -202.5t146.5 -146.5t202 -54t202.5 54t147 146.5t54 202.5q0 119 -63 217
t-167 147zM512 370q24 0 41 19t17 46v329q0 28 -17 47t-41 19t-41 -19t-17 -47v-329q0 -27 17 -46t41 -19z" />
    <glyph glyph-name="cdn" unicode="&#xe610;" 
d="M827 719q13 0 25.5 -2t25 -6t23.5 -10q12 -6 22 -14q20 -15 32 -36q11 -20 12.5 -42t-6.5 -43q-9 -21 -27 -38q-10 -8 -21 -15q-11 -6 -23 -10t-25 -6.5t-26 -2.5q-6 0 -13 1q-6 0 -12 1t-12 2.5t-12 3.5l-110 -97q11 -19 17 -39t7 -41q0 -21 -6 -42t-17 -40l118 -102
q7 3 14 5t14 3t14.5 2t15.5 1q14 0 28 -2.5t27 -7.5q14 -5 26 -12q13 -7 24 -16q22 -19 35 -44q13 -24 15 -51q2 -26 -8 -51q-9 -25 -29 -45q-10 -10 -23 -18q-11 -8 -24.5 -13t-27.5 -7.5t-28.5 -2.5t-29 2.5t-28.5 7.5t-27 13t-24 18q-18 16 -30 37q-11 19 -15 41
q-4 21 0 42q3 22 14 40l-114 100q-12 -7 -25 -12.5t-26.5 -9t-27.5 -5t-28 -1.5q-12 0 -24 1t-23.5 3.5t-23 6.5t-21.5 9l-122 -108q7 -18 8 -37t-4 -38t-15 -37q-11 -18 -28 -32q-11 -10 -24 -18t-27 -13t-28 -7.5t-29 -2.5t-29 2.5t-27 7.5q-14 5 -25 13q-13 8 -23 18
q-20 20 -29 45t-7.5 51.5t14.5 50.5q13 25 35 44q11 9 24 16t26 12t27 7.5t28 2.5q10 0 19.5 -1.5t19 -3.5t18.5 -6q9 -3 18 -8l111 96q-17 22 -25 47q-8 24 -8 49q1 25 9 48q9 24 25 45l-103 90q-7 -3 -16 -6q-8 -2 -16.5 -4t-16.5 -3t-17 -1q-13 0 -26 2.5t-25 6.5
t-23 10.5t-21 14.5q-18 17 -27 38q-8 21 -6.5 43t12.5 42q12 21 32 36q10 8 22 14q11 6 23.5 10t25 6t25.5 2t25.5 -2t24 -6t22.5 -10t20 -14q15 -12 24 -27q8 -15 11 -31.5t0.5 -33t-11.5 -32.5l107 -92q11 5 22 9q12 4 23.5 6.5t23.5 4t25 1.5q14 0 28 -2t28 -5
q14 -4 27 -10q13 -5 25 -12l101 87q-13 16 -18 35q-5 18 -3 36.5t11 35.5t25 30q9 8 20 14t22.5 10t24 6t25.5 2v0z" />
    <glyph glyph-name="yonghu" unicode="&#xe61e;" 
d="M592 -140h-179h-83t-70 2.5t-63.5 8t-44 14.5t-33 24.5t-9.5 36.5v17q0 124 88.5 211t214.5 87h179q126 0 214.5 -87.5t88.5 -210.5v-17q0 -16 -5.5 -28.5t-19.5 -21.5t-27 -15.5t-39 -10.5t-44 -6t-52.5 -3t-54.5 -1h-61zM493.5 284q-99.5 0 -169.5 69.5t-70 167t70 167
t169.5 69.5t169.5 -69.5t70 -167t-70 -167t-169.5 -69.5z" />
    <glyph glyph-name="bianji2" unicode="&#xe60d;" 
d="M785 -96h-618q-43 0 -73 30t-30 73v687q0 43 30 73t73 30h481q21 0 29.5 -17t0 -34t-29.5 -17h-481q-14 0 -24 -10.5t-10 -24.5v-687q0 -14 10 -24t24 -10h618q14 0 24.5 10t10.5 24v550q0 21 17 29.5t34 0t17 -29.5v-550q0 -43 -30 -73t-73 -30v0zM559 463q-21 25 0 50
l341 341q11 10 25 10t24 -10q18 -19 6 -42l-6 -7l-341 -342q-10 -9 -24.5 -9t-24.5 9v0zM442 454h-206q-21 0 -29.5 17t0 34.5t29.5 17.5h206q21 0 29.5 -17.5t0 -34.5t-29.5 -17v0zM648 248h-412q-21 0 -29.5 17t0 34t29.5 17h412q21 0 29.5 -17t0 -34t-29.5 -17z" />
    <glyph glyph-name="guanliankehu" unicode="&#xe620;" 
d="M263 10q-18 -17 -42 -17t-41 17l-42 42q-17 17 -17 41t17 42l279 279q-29 8 -59.5 0.5t-53.5 -30.5l-208 -208q-34 -34 -34 -83t34 -83l42 -42q34 -34 83 -34t83 34l208 208q23 23 30.5 53.5t-0.5 59.5zM928 758l-42 42q-34 34 -83 34t-83 -34l-208 -208
q-23 -23 -30.5 -53.5t0.5 -59.5l279 279q18 17 42 17t41 -17l42 -42q17 -17 17 -41t-17 -42l-279 -279q29 -8 59.5 -0.5t53.5 30.5l208 208q34 34 34 83t-34 83zM605.5 477q-8.5 9 -20.5 9t-21 -9l-146 -145q-8 -9 -8 -21t8.5 -21t20.5 -9t21 9l145 146q9 8 9 20t-8.5 21z
" />
    <glyph glyph-name="bianji1" unicode="&#xe63a;" 
d="M378 373q0 -1 -1 -2l-35 -130q-4 -12 5 -21q7 -7 16 -7q3 0 6 1l130 35v0q3 0 4 2l348 345q16 16 16 40q0 27 -21 47l-32 33q-21 20 -48 20q-24 0 -40 -16l-347 -346v-0.5t-1 -0.5zM817 630l-35 -34l-56 56l34 34q4 4 11 3.5t11 -5.5l33 -32q5 -6 5 -13q0 -5 -3 -9z
M440 368l251 249l56 -56l-250 -249zM395 267l18 66l48 -48zM839 493q-10 0 -17 -7t-7 -17v-322q0 -12 -9 -21t-22 -9h-548q-13 0 -22 9t-9 21v526q0 13 9 21.5t22 8.5h353q10 0 17 7t7 17t-7 17t-17 7h-357q-31 0 -53 -22t-22 -53v-532q0 -31 22 -53t53 -22h556q31 0 53 22
t22 53v325q0 10 -7 17t-17 7z" />
    <glyph glyph-name="bianji" unicode="&#xe679;" 
d="M880 40h-743q-8 0 -14 -6t-6 -14t6 -14t14 -6h743q8 0 14 6t6 14t-6 14t-14 6zM167 98q2 0 5 1l123 35q5 1 9 5l387 387q5 6 5 14t-5.5 14t-14 6t-14.5 -6l-334 -335l-65 65q-3 4 -8 5l327 328q6 5 6 13.5t-6 14.5t-14 6t-14 -6l-384 -384q-5 -5 -6 -12l-17 -128
q-2 -11 6 -18q6 -5 14 -5zM203 237l27 27q1 -5 4 -8l65 -65l-20 -20l-88 -26zM701 567q6 -6 13 -6q9 0 15 7l71 76q5 6 5 14.5t-6 13.5l-97 90q-7 6 -15 5.5t-14 -6.5l-70 -77q-6 -6 -5.5 -14t6.5 -14zM689 719l68 -62l-44 -47l-67 62z" />
    <glyph glyph-name="comiisfariji" unicode="&#xe669;" 
d="M878 804h-674v-112h-82q-12 0 -21 -7.5t-9 -19.5v-56q0 -11 9.5 -20t20.5 -9h82v-56h-82q-12 0 -21 -7.5t-9 -18.5v-56q0 -12 9.5 -21t20.5 -9h82v-56h-82q-12 0 -21 -7.5t-9 -18.5v-56q0 -12 9.5 -21t20.5 -9h82v-56h-82q-12 0 -21 -7.5t-9 -18.5v-56q0 -12 9.5 -21
t20.5 -9h82v-112h674q23 0 38.5 17t15.5 41v727q0 24 -15.5 39.5t-38.5 15.5zM372 20h-112v56h30q11 0 18.5 9t7.5 21v56q0 11 -7 18.5t-19 7.5h-30v56h30q11 0 18.5 9t7.5 21v56q0 11 -7 18.5t-19 7.5h-30v56h30q11 0 18.5 9t7.5 21v56q0 11 -7 18.5t-19 7.5h-30v56h30
q11 0 18.5 8.5t7.5 20.5v56q0 12 -7 19.5t-19 7.5h-30v56h112v-728v0z" />
    <glyph glyph-name="left" unicode="&#xe6dd;" horiz-adv-x="1026" 
d="M466 113l-3 4l-263 263l-4 3v0.5v0.5q4 2 4 3l263 263l3 3v0l7 -7l35 -35l4 -2q-31 -32 -226 -225l1 -1l1 -1l1 -1l1 -1l1 -1l1 -1l1 -1l1 -1l1 -1l1 -1l1 -1l1 -1l1 -1l1 -1l1 -1l1 -1l1 -1l1 -1l1 -1l1 -1l1 -1l1 -1l1 -1l1 -1l1 -1l1 -1l1 -1l1 -1l1 -1l1 -1l1 -1
l1 -1l1 -1l1 -1l1 -1l1 -1l1 -1l1 -1l1 -1l1 -1l1 -1l1 -1l1 -1l1 -1l1 -1l1 -1l1 -1l1 -1l1 -1l1 -1l1 -1l1 -1l1 -1l1 -1l1 -1l1 -1l1 -1l1 -1l1 -1l1 -1l1 -1l1 -1l1 -1l1 -1l1 -1l1 -1l1 -1l1 -1l1 -1l1 -1l1 -1l1 -1l1 -1l1 -1l1 -1l1 -1l1 -1l1 -1l1 -1l1 -1l1 -1
l1 -1l1 -1l1 -1l1 -1l1 -1l1 -1l1 -1l1 -1l1 -1l1 -1l1 -1l1 -1l1 -1l1 -1l1 -1l1 -1l2 -2l1 -1l1 -1l1 -1l1 -1l1 -1l1 -1l1 -1l1 -1l1 -1l1 -1l1 -1l1 -1l1 -1l1 -1l1 -1l1 -1l1 -1l1 -1l1 -1l1 -1l1 -1l1 -1l1 -1l1 -1l1 -1l1 -1l1 -1l1 -1l1 -1l1 -1l1 -1l1 -1l1 -1
l1 -1l1 -1l1 -1l1 -1l1 -1l1 -1l1 -1l1 -1l1 -1l1 -1l1 -1l1 -1l1 -1l1 -1l1 -1l1 -1l1 -1l1 -1l1 -1l1 -1l1 -1l1 -1l1 -1l1 -1l1 -1l1 -1l1 -1l1 -1l1 -1l1 -1l1 -1l1 -1l1 -1l1 -1l1 -1l1 -1h1l1 -1l1 -1l1 -1l1 -1l1 -1l1 -1l1 -1l1 -1l1 -1l1 -1l1 -1l1 -1l1 -1l1 -1
l1 -1l1 -1l1 -1l1 -1l1 -1l1 -1l1 -1l1 -1l1 -1l1 -1l1 -1l1 -1l1 -1l1 -1l1 -1l1 -1l1 -1l1 -1l1 -1l1 -1l1 -1l1 -1l1 -1l1 -1l1 -1l1 -1l1 -1l1 -1l1 -1l1 -1l1 -1l1 -1l1 -1l1 -1l1 -1l1 -1l1 -1l1 -1l1 -1l1 -1l1 -1l1 -2l-3 -3l-18 -18l-22 -22l-2 -3v0zM784 653
q24 -25 27 -27q0 -1 18 -18q-52 -52 -226 -224l1 -1l1 -1l1 -1l1 -1l1 -1l1 -1l1 -1l1 -1l1 -1l1 -1l1 -1l1 -1l1 -1l1 -1l1 -1l1 -1l1 -1l1 -1l1 -1l1 -1l1 -1l1 -1l1 -1l1 -1l1 -1l1 -1l1 -1l1 -1l1 -1l1 -1l1 -1l1 -1l1 -1l1 -1l1 -1l1 -1l1 -1l1 -1l1 -1l1 -1l2 -1l1 -1
l1 -1l1 -1l1 -1l1 -1l1 -1l1 -1l1 -1l1 -1l1 -1l1 -1l1 -1l1 -1l1 -1l1 -1l1 -1l1 -1l1 -1l1 -1l1 -1l1 -1l1 -1l1 -1l1 -1l1 -1l1 -1l1 -1l1 -1l1 -1l1 -1l1 -1l1 -1l1 -1l1 -1l1 -1l1 -1l1 -1l1 -1l1 -1l1 -1l1 -1l1 -1l1 -1l1 -1l1 -1l1 -1l1 -1l1 -1l1 -1l1 -1l1 -1
l1 -1l1 -1l1 -1l1 -1l1 -1l1 -1l1 -1l1 -1l1 -1l1 -1l1 -1l1 -1l1 -1l1 -1l1 -1l1 -1l1 -1l1 -1l1 -1l1 -1l1 -1l1 -1l1 -1l1 -1l1 -1l1 -1l1 -1l1 -1l1 -1l1 -1l1 -1l1 -1l1 -1l1 -1l1 -1l1 -1l1 -1l1 -1l1 -1l1 -1l1 -1l1 -1l1 -1l1 -1l1 -1l1 -2l1 -1l1 -1l1 -1l1 -1
l1 -1l1 -1l1 -1l1 -1l1 -1l1 -1l1 -1l1 -1l1 -1l1 -1l1 -1l1 -1l1 -1l1 -1l1 -1l1 -1l1 -1l1 -1h1l1 -1l1 -1l1 -1l1 -1l1 -1l1 -1l1 -1l1 -1l1 -1l1 -1l1 -1l1 -1l1 -1l1 -1l1 -1l1 -1l1 -1l1 -1l1 -1l1 -1l1 -1l1 -1l1 -1l1 -1l1 -1l1 -1l1 -1l1 -1l1 -1l1 -1l1 -1l1 -1
l1 -1l1 -1l1 -1l1 -1l1 -1l1 -1l1 -1l1 -1l1 -1l1 -1l1 -1l1 -1l1 -1l1 -1l1 -1l1 -1l1 -1l1 -1l1 -1l1 -1l1 -1l1 -1l1 -1l1 -1l1 -1l1 -1l1 -1l1 -1l1 -1l1 -1l2 -2l-3 -3q-5 -5 -18.5 -19t-21.5 -21l-2 -3h-1l-2 3l-264 264l-3 3l3 3q212 212 263 264q1 0 3 3h1z" />
    <glyph glyph-name="iconfonticonmingchengpaixu64" unicode="&#xe607;" 
d="M601 320h228q58 0 58 60v14q0 52 -58 52l-228 2v79h231q55 0 94 -39t39 -94v-14q0 -55 -39 -94t-94 -39h-231v73zM65 380v14q0 55 39 94t95 39h222v-78l-85 -1h-137q-31 0 -42.5 -17t-11.5 -37v-14q0 -60 54 -60h222l-1 -73h-221q-56 0 -95 39t-39 94v0zM65 380z" />
    <glyph glyph-name="qiyong" unicode="&#xe67f;" 
d="M512.5 -91q-96.5 0 -184.5 38t-152 101.5t-101.5 151.5t-37.5 184.5t37.5 184.5t101.5 151.5t152 101.5t184.5 38t184.5 -38t151.5 -101.5t101 -151.5t37.5 -184.5t-37.5 -184.5t-101 -151.5t-151.5 -101.5t-184.5 -38zM512 841q-93 0 -177.5 -36.5t-145.5 -97.5
t-97.5 -145.5t-36.5 -177t36.5 -177t97.5 -146t145.5 -97.5t177.5 -36t177.5 36t145.5 97.5t97.5 146t36.5 177t-36.5 177t-97.5 145.5t-145.5 97.5t-177.5 36.5zM418 163q-13 -10 -26.5 -0.5t-13.5 28.5v387q0 19 13.5 28t26.5 0l271 -194q14 -10 14 -28t-14 -28z" />
    <glyph glyph-name="right" unicode="&#xe711;" 
d="M705 382l-226 225l42 42l268 -267l-268 -268l-42 42zM459 386l-226 226l42 41l268 -267l-268 -268l-42 42z" />
    <glyph glyph-name="change" unicode="&#xe602;" 
d="M892.5 556q6.5 17 -5.5 29l-127 127l-38 -38l81 -81h-607v-54h672q18 0 24.5 17zM894 271h-671q-18 0 -25 -16.5t6 -29.5l126 -127l38 38l-80 81h606v54z" />
    <glyph glyph-name="disable" unicode="&#xe65e;" 
d="M512.5 830q-90.5 0 -173 -35.5t-142.5 -95t-95.5 -142t-35.5 -173.5t35.5 -173.5t95.5 -142t142.5 -95t173 -35.5t173 35.5t142 95t95 142t35.5 173.5t-35.5 173.5t-95 142t-142 95t-173 35.5zM512 775q151 0 262 -101l-552 -552q-101 112 -101 262q0 106 52.5 196
t142.5 142.5t196 52.5v0zM512 -7q-141 0 -250 91l550 550q91 -108 91 -250q0 -106 -52.5 -196t-142.5 -142.5t-196 -52.5v0z" />
    <glyph glyph-name="customer-mgr" unicode="&#xe639;" horiz-adv-x="1028" 
d="M402 187q0 77 34 141q-103 -7 -188 -61t-134 -142.5t-49 -190.5h469q-61 43 -96.5 109.5t-35.5 143.5zM459 384h14q69 82 174 104q34 51 34 118q0 93 -66 159t-159 66t-159 -66t-66 -159q2 -91 68.5 -156.5t159.5 -65.5zM928 184l-5 3l-3 3q5 3 8 6q17 8 25 23.5t6 32.5
q-4 39 -19 62q-26 42 -76 25q-2 0 -4.5 -1.5t-4.5 -1.5v6q13 35 -14 67q-17 17 -34 23q-21 8 -39 8q-35 0 -56 -42l-3 3q0 3 -3 3q0 1 -1.5 4t-1.5 4q-19 28 -48 28h-8q-4 0 -10.5 -1.5t-11 -2t-10 -2.5t-10.5 -5q-57 -28 -45 -84v-6q-6 0 -9 3q-37 12 -64 -20
q-17 -22 -20 -45q-17 -60 37 -84q-3 -3 -6 -3q-32 -12 -37 -53q0 -52 31 -79q21 -21 54 -17q5 0 8 3h3v-3q-13 -38 17 -68q20 -19 53 -28q12 -3 26 -3q36 0 56 40l3 3l5 -6q0 -3 6 -8q20 -33 59 -29q30 5 53 20q43 30 26 79h8q50 -12 79 34q13 21 17 50q0 36 -37 59z
M864 182q5 -31 28 -43q1 0 2.5 -1.5t2.5 -1.5h3q6 -2 6 -8q0 -13 -9 -25q-5 -9 -11 -9h-8q-6 0 -9 3h-3q-38 4 -56 -22q-15 -23 -6 -57q3 -4 2.5 -5.5t-4.5 -5.5q-17 -11 -34 -11l-3 3q0 3 -3 5l-3 3q-17 31 -50 31q-32 0 -51 -31q-7 -11 -8 -11q-6 0 -11 3q-19 4 -31 17v2
q0 3 2 9q10 29 -5 48q-14 22 -42 22h-9q-11 0 -17 -3h-8q-14 14 -14 43q17 6 31 25q12 21 8 45q-4 26 -31 39q-8 4 -9 6.5t1 13.5q4 15 11 22l3 3h3q21 -7 39 -3q23 7 34.5 26.5t7.5 47.5v11q3 3 14 8q17 6 26 6l2 -3q2 -1 3.5 -4t2.5 -4q19 -29 51 -29q15 0 28 8.5t19 22.5
q6 12 9 12t11.5 -3t10.5 -3q3 -1 7.5 -4t6.5 -4q3 -3 3 -6q-7 -20 -3 -39q5 -22 23.5 -34.5t41.5 -8.5q6 0 17 6q6 0 6 3q3 0 5 -6q7 -9 12 -34l-6 -14q-11 -5 -23 -16q-21 -18 -16 -45zM711.5 300q-46.5 0 -79.5 -33t-33 -79.5t33 -79.5t79.5 -33t79.5 33t33 79.5t-33 79.5
t-79.5 33zM711.5 131q-23.5 0 -40 16.5t-16.5 39.5t16.5 39.5t40 16.5t40 -16.5t16.5 -39.5t-16.5 -39.5t-40 -16.5z" />
    <glyph glyph-name="duixiangcunchu1" unicode="&#xe689;" 
d="M939 -127h-726v109h-128v913h854v-1022zM264 -76h624v920h-752v-811l128 1v-110zM737 -97h-51v142h51v-142zM646 -97h-51v142h51v-142zM555 -97h-52v142h52v-142zM463 -97h-51v142h51v-142zM372 -97h-51v142h51v-142zM830 -97h-52v142h52v-142zM700 233h-10v2
q-21 -2 -130 -2h-256q-19 0 -39 22.5t-20 73.5q0 49 31 86t76 44q15 49 53 83q9 16 41.5 29.5t68.5 13.5q55 0 99.5 -34.5t61.5 -89.5q6 -14 8 -55q35 -8 59 -39t24 -64t-22.5 -51.5t-44.5 -18.5zM373 410q-32 0 -54.5 -23.5t-22.5 -57.5q0 -39 13 -46l357 2l34 -1
q11 0 15 12q1 3 1 7q0 16 -15.5 35t-34.5 19l-34 -2l1 27q0 47 -4 58q-12 43 -43.5 68.5t-70.5 25.5q-55 0 -90 -45q-22 -26 -27 -58l-3 -21h-22z" />
    <glyph glyph-name="portal-icon-cunchu" unicode="&#xe651;" 
d="M928 131l-76 487q-13 38 -27.5 66.5t-37.5 58t-58 45.5t-79 16h-270q-27 0 -53 -8t-54.5 -27.5t-53.5 -59t-42 -95.5l-81 -483q-4 -28 -4 -42q0 -52 35 -88.5t85 -36.5h600q50 0 85 36.5t35 88.5zM388 552q2 0 6 -1t5 -1q4 42 35.5 71t75.5 29q41 0 72.5 -26t37.5 -65
q8 1 12 1q28 0 47 -18.5t19 -45.5t-19 -45.5t-47 -18.5h-244q-26 0 -44 17.5t-18 42.5t18 42.5t44 17.5zM763 39h-502q-22 0 -38 15t-16 35.5t16 35.5t38 15h502q22 0 38 -15t16 -35.5t-16 -35.5t-38 -15z" />
    <glyph glyph-name="fenxi" unicode="&#xe668;" 
d="M653 117h-266v-133h-240v-53h746v53h-240v133zM899 837h-758q-30 0 -52 -21.5t-22 -52.5v-494q0 -30 22 -52t52 -22h755q32 0 53.5 21t21.5 53v494q2 31 -20 52.5t-52 21.5zM923 272q0 -10 -7 -17t-17 -7h-758q-10 0 -17 7t-7 17v491q0 10 7 17t17 7h755q10 0 17 -7
t7 -17v-491h3zM619 443q34 39 34 88h-53q0 -34 -23 -57t-57 -23t-57 23t-23 57t23 57t57 23v53q-53 0 -91 -37l-104 104h-144v-54h123l96 -96q-11 -21 -11 -50q0 -56 39 -95t95 -39q29 0 56 14l106 -107h166v53h-142zM181 544h134v-53h-134v53zM181 357h160v-53h-160v53z
M608 675q-5 2 -13 2q-22 0 -38 -15.5t-16 -37.5t16 -37.5t38 -15.5t37.5 15.5t15.5 37.5q0 8 -3 13l40 40h163v54h-184z" />
    <glyph glyph-name="cdn1" unicode="&#xe79c;" 
d="M1000 694q-16 94 -49.5 127.5t-129.5 49.5q-127 23 -313 23q-182 0 -306 -22q-94 -16 -127.5 -49.5t-49.5 -129.5q-22 -126 -22.5 -309.5t21.5 -309.5q16 -94 49.5 -127.5t129.5 -49.5q127 -23 314 -23q181 0 305 22q94 16 127.5 49.5t49.5 129.5q22 126 22.5 309.5
t-21.5 309.5zM964 83q-15 -84 -41.5 -110.5t-109.5 -41.5q-119 -20 -296 -20v0q-182 0 -306 21q-84 15 -110.5 41.5t-40.5 109.5q-22 122 -21.5 300.5t21.5 301.5q15 84 41.5 110.5t109.5 41.5q119 20 297 20q181 0 304 -21q85 -15 111.5 -41t40.5 -110q22 -122 21.5 -300.5
t-21.5 -301.5zM730 496q31 0 52 21t21 51t-21 51.5t-51.5 21.5t-51.5 -21.5t-21 -51.5q0 -17 7 -32l-68 -57q-36 32 -85 32t-85 -32l-68 57q7 15 7 32q0 30 -21 51.5t-51.5 21.5t-51.5 -21.5t-21 -51.5t21 -51t52 -21q22 0 41 13l69 -58q-19 -31 -19 -67t19 -67l-69 -58
q-19 13 -41 13q-31 0 -52 -21t-21 -51t21 -51.5t51.5 -21.5t51.5 21.5t21 51.5q0 17 -7 32l68 57q36 -32 85 -32t85 32l68 -57q-7 -15 -7 -32q0 -30 21 -51.5t51.5 -21.5t51.5 21.5t21 51.5t-21 51t-52 21q-22 0 -41 -13l-69 58q19 31 19 67t-19 67l69 58q19 -13 41 -13z
" />
  </font>
</defs>
</svg>
